<svg width="1600" height="900" viewBox="0 0 1600 900" xmlns="http://www.w3.org/2000/svg" preserveAspectRatio="xMidYMid slice">
  <defs>
    <linearGradient id="g" x1="0" x2="1" y1="0" y2="1">
      <stop offset="0%" stop-color="#37a365" stop-opacity="0.95"/>
      <stop offset="100%" stop-color="#1f7a3a" stop-opacity="0.95"/>
    </linearGradient>
  </defs>
  <rect width="100%" height="100%" fill="url(#g)" />

  <!-- simple stylised field lines -->
  <g transform="translate(0,300) scale(1,0.6)" fill="none" stroke="rgba(255,255,255,0.12)" stroke-width="18">
    <path d="M0 400 C 300 250 600 250 900 400 S 1400 550 1600 400" />
    <path d="M0 460 C 300 310 600 310 900 460 S 1400 610 1600 460" />
    <path d="M0 520 C 300 370 600 370 900 520 S 1400 670 1600 520" />
  </g>

  <!-- sun -->
  <circle cx="1300" cy="160" r="70" fill="#fff" opacity="0.08" />

  <!-- stylised leaf icon on left -->
  <g transform="translate(110,320)">
    <path d="M40 0 C 70 30 90 80 70 140 C 50 200 10 220 -40 230 C -10 160 10 70 40 0 Z" fill="#fff" opacity="0.06" />
    <path d="M80 10 C 140 40 220 120 200 220 C 180 320 80 340 -40 300 C 0 200 20 100 80 10 Z" fill="#fff" opacity="0.03" />
  </g>
</svg>
